<?xml version="1.0" standalone="no"?> <!DOCTYPE svg PUBLIC "-//W3C//DTD SVG 1.0//EN" "http://www.w3.org/TR/2001/REC-SVG-20010904/DTD/svg10.dtd" > <svg xmlns="http://www.w3.org/2000/svg" width="100%" height="100%">
<defs >
<font id="vtcsupermarketsaleregular" horiz-adv-x="398" ><font-face
    font-family="VTCSuperMarketSale"
    units-per-em="1000"
    panose-1="2 0 5 6 0 0 0 2 0 4"
    ascent="770"
    descent="-37"
    alphabetic="0" />
<missing-glyph horiz-adv-x="500" />
<glyph unicode=" " glyph-name="space" horiz-adv-x="241" />
<glyph unicode="!" glyph-name="exclam" horiz-adv-x="267" d="M205 761Q189 775 169 786T131 804Q112 812 104 807T90 778Q80 728 68 662T45 527T24 390T8 270Q4 244 8 230T28 205Q56 184 90 175Q105 170 112 174T122 199Q131 254 143 316T168 442T196 571T224
697Q229 718 225 732T205 761ZM-28 64Q-30 16 -9 -10T44 -36Q59 -36 71 -29T91 -10T105 13T113 35Q116 47 116 63T110 94T93 123T64 144Q43 153 27 149T-1 133T-20 103T-28 64Z" />
<glyph unicode="&quot;" glyph-name="quotedbl" horiz-adv-x="374" d="M136 602Q123 573 100 568Q91 565 79 564T55 565Q27 569 35 601Q41 624 49 658T66 729T82 802T95 866Q98 887 107 889T131 881Q144 873 155 864T176 842Q188 827 190 811Q191 803 190 789T185
757T177 720T166 684Q159 660 151 639T136 602ZM281 572Q264 545 242 544Q231 542 219 543T196 547Q166 554 178 586Q187 607 199 639T223 706T246 776T265 836Q275 872 303 846Q316 836 326 825T344 803Q355 783 355 771Q355 763 350 738Q345 718 337 695T319
648T299 605T281 572Z" />
<glyph unicode="#" glyph-name="numbersign" horiz-adv-x="478" d="M419 461Q402 459 384 458T347 454Q341 425 335 396T324 337Q350 336 361 326T384 292Q392 276 390 269T372 259Q356 257 340 255T307 250Q299 205 292 168T280 98Q276 80 270 79T251 85Q234
96 224 111T212 151Q211 159 211 169T213 191Q215 201 216 210T219 232Q199 225 179 222T138 211Q132 174 127 142T117 80Q113 62 108 61T89 67Q67 81 55 104T48 172L49 186Q25 181 10 194T-19 234Q-27 251 -26 258T-9 271Q8 278 26 282T64 293Q69 319 73 346T82
403Q82 402 79 402Q47 394 31 408T1 451Q-8 468 -6 475T12 487Q30 494 53 498T102 509Q111 557 120 600T138 679Q147 713 171 690Q194 669 205 644T209 581Q205 555 197 526Q217 528 236 530T274 535Q283 581 293 624T312 702Q321 736 346 712Q369 691 379 665T381
602Q377 588 374 573T366 541Q397 540 409 528T432 492Q440 475 437 469T419 461ZM255 439Q234 435 215 432T176 424Q171 395 166 369T156 314Q176 318 196 321T235 328Q239 356 244 383T255 439Z" />
<glyph unicode="$" glyph-name="dollar" horiz-adv-x="369" d="M146 668Q154 703 162 739T177 799Q188 832 212 809Q232 792 242 766T248 703Q246 688 243 669T236 631Q249 620 264 604Q284 581 288 559T293 517Q293 501 292 482T287 443T281 405T273 373Q264
351 244 360Q218 374 201 396T186 455Q188 473 190 497T191 539Q191 550 186 553Q180 556 171 550T152 530T134 500T122 463T121 425T137 388Q159 362 186 340T235 295T268 245T271 180Q266 165 257 147T235 113T202 87T155 76H146Q139 76 138 77Q132 45 127 10T118
-51Q116 -69 109 -71T89 -64Q66 -47 58 -12T51 59Q52 73 53 84T56 108Q39 120 23 136T-9 175Q-29 204 -29 218Q-29 233 -20 241Q-4 255 18 252T54 235Q94 202 127 193T171 197Q178 206 168 219T138 248T94 283T51 324Q25 353 12 395T8 488Q21 533 46 579T106 653Q114
659 124 663T146 668Z" />
<glyph unicode="%" glyph-name="percent" horiz-adv-x="593" d="M458 610Q476 639 472 667T451 722Q433 752 416 726Q400 702 381 685T343 656T305 639T273 636Q238 639 220 673Q207 699 196 714Q175 737 138 748Q127 751 112 747T86 733Q62 709 45 672T19 593T11
510T24 436Q31 422 39 408T57 386Q68 376 82 370T110 360Q149 353 177 382Q192 398 202 421T219 470T229 525T232 581Q257 570 284 573T335 595Q300 536 262 469T189 337T125 214T77 119Q60 80 65 55T89 8Q100 -2 106 -3T120 8Q136 42 161 90T218 195T282 311T348
426T409 530T458 610ZM497 281Q495 299 488 316T468 348Q459 358 444 367T412 382Q400 385 385 381T358 367Q333 343 316 306T289 227T280 144T292 70T323 20Q334 10 348 5T376 -4Q413 -13 442 16Q457 32 468 54T486 103T497 157T501 212Q501 231 500 248T497 281ZM149
673Q155 670 157 657T159 624Q159 605 157 582T151 535Q141 478 127 451T100 431Q87 437 87 475T96 568Q100 587 107 607T121 642T136 667T149 673ZM421 307Q426 304 428 290T430 256T427 213T419 168Q408 113 393 85T366 64Q353 71 353 109Q353 150 366 202Q370
221 377 241T392 277T408 301T421 307Z" />
<glyph unicode="&amp;" glyph-name="ampersand" horiz-adv-x="519" d="M307 56Q263 18 211 0Q193 -8 172 -13T129 -17T81 -3T29 37Q-29 100 -31 161T2 283Q20 312 45 337T99 385Q85 414 78 431Q52 495 49 543T66 644Q85 692 122 725T202 769Q221 774 239 775T274
772T309 752T347 710Q395 646 399 580T365 457Q345 425 313 396T248 341Q263 313 279 286T313 233Q328 248 341 264T371 298Q387 314 396 314Q407 314 413 300Q427 267 421 234T398 168Q393 160 389 152T380 137Q393 120 403 106T425 77Q439 60 439 51T427 30T407
13T383 2Q368 0 357 7T325 35Q317 45 307 56ZM191 456Q211 471 229 487T260 520Q269 530 277 546T288 581T289 618T274 654Q261 650 247 642T221 622T198 598T183 571Q164 525 188 463L191 456ZM230 162Q213 186 197 212T163 268Q125 230 109 198T93 142Q93 129
98 121Q110 104 146 115T230 162Z" />
<glyph unicode="&apos;" glyph-name="quotesingle" horiz-adv-x="212" d="M129 572Q112 545 90 544Q79 542 68 543T44 547Q15 555 27 586Q35 608 46 640T70 707T93 776T113 836Q123 872 151 846Q164 836 174 825T192 803Q203 783 203 771Q203 763 198 738Q193
718 185 695T167 648T147 605T129 572Z" />
<glyph unicode="(" glyph-name="parenleft" horiz-adv-x="243" d="M137 812Q156 846 180 808Q236 722 201 644Q171 576 152 494T126 326T129 154T168 -4Q175 -21 172 -25T155 -33Q130 -35 105 -21T60 38Q25 125 14 227T12 432T54 634T137 812Z" />
<glyph unicode=")" glyph-name="parenright" horiz-adv-x="271" d="M179 670Q195 586 194 491T176 305T130 134T59 0Q24 -44 -35 -36Q-65 -32 -49 -2Q-22 40 -1 96T35 217T57 352T65 494T60 635T38 767Q33 789 36 801T63 806Q112 795 140 758T179 670Z" />
<glyph unicode="*" glyph-name="asterisk" horiz-adv-x="475" d="M396 505Q370 499 345 491T294 475Q314 452 335 430T381 382Q394 368 393 362T381 344Q361 329 341 329Q320 329 288 361Q274 374 262 386T239 410Q234 378 230 347T219 281Q216 263 211 261T191
269Q169 282 157 304T150 372Q152 386 153 398T156 421Q142 415 128 410T100 397Q71 383 50 396T12 438Q2 453 3 461T19 476Q42 488 70 501T131 526Q110 550 88 577T41 636Q21 662 45 677Q68 691 92 688T140 654Q153 640 162 627T183 602Q189 637 196 673T214 749Q223
783 247 760Q270 739 281 713T285 650Q280 630 276 611T269 574Q281 577 293 579T316 584Q351 591 371 579T405 540Q422 511 396 505Z" />
<glyph unicode="+" glyph-name="plus" horiz-adv-x="488" d="M376 316Q340 314 303 313T228 306Q220 258 214 213T202 131Q199 112 194 109T175 114Q163 122 152 129T126 148Q105 165 106 198Q108 216 109 239T115 290Q98 288 82 285T51 277T28 276T9 295Q-1 309
-11 331T-26 371T-23 396T-3 407Q23 414 59 419T135 428Q143 475 151 516T169 588Q173 602 181 609T202 611Q217 603 233 590T259 563Q270 549 272 539T269 511Q265 494 261 476T252 437Q299 439 331 437Q357 436 371 407Q379 390 383 376T393 346Q398 329 394
323T376 316Z" />
<glyph unicode="," glyph-name="comma" horiz-adv-x="209" d="M38 -119Q28 -133 20 -138T0 -146Q-14 -147 -29 -143T-57 -132Q-82 -122 -70 -92Q-52 -44 -31 7T6 113Q13 131 22 133T46 125Q61 115 75 103T103 73Q114 59 115 47T109 17Q103 0 94 -19T75 -57T55
-92T38 -119Z" />
<glyph unicode="-" glyph-name="hyphen" horiz-adv-x="395" d="M-56 492Q-36 498 -8 504T51 514T115 521T178 524Q205 524 224 487Q234 465 240 446T253 409Q260 387 256 380T236 372Q183 367 127 358T22 332Q9 327 -2 333T-26 360Q-39 380 -48 399T-66 438Q-85
484 -56 492Z" />
<glyph unicode="." glyph-name="period" horiz-adv-x="221" d="M-19 73Q-21 27 0 0T53 -25Q68 -25 80 -18T100 0T113 23T121 44Q124 57 124 73Q124 89 119 104T102 133T73 154Q53 162 37 158T8 142T-11 112T-19 73Z" />
<glyph unicode="/" glyph-name="slash" horiz-adv-x="354" d="M322 713Q336 696 336 684T329 653Q314 620 292 568T245 454T192 325T139 193T91 74T55 -18Q49 -36 41 -39T18 -32Q4 -21 -6 -12T-26 7Q-39 19 -40 36Q-41 52 -34 76Q-24 106 -6 159T35 278T84 413T135
549T183 669T222 756Q238 793 267 767Q281 755 295 742T322 713Z" />
<glyph unicode="0" glyph-name="zero" horiz-adv-x="457" d="M335 701Q358 676 369 649T386 588Q395 527 394 452T381 300T345 154T284 35Q258 1 229 -8T162 -12Q138 -9 112 0T63 26Q48 38 31 60T4 110Q-14 175 -16 259T-5 429T41 591T121 720Q142 741 170 750T222
755Q255 748 285 735T335 701ZM244 620Q231 625 215 607T183 555T153 479T129 390T116 299T113 214T123 148T145 113Q158 107 173 121T203 167T230 241T251 338Q258 380 262 426T266 515Q266 557 261 586T244 620Z" />
<glyph unicode="1" glyph-name="one" horiz-adv-x="258" d="M208 652Q200 614 191 563T172 455T153 337T135 218T119 105T106 8Q103 -9 97 -14T74 -12Q58 -6 43 -1T11 17Q-1 28 -5 43T-7 84Q-5 120 0 178T14 302T33 437T53 563Q29 580 23 590T25 625Q35 653 49
681T75 731Q86 750 94 754T121 751Q138 745 155 735T189 709Q205 695 209 684T208 652Z" />
<glyph unicode="2" glyph-name="two" horiz-adv-x="413" d="M148 143Q174 149 203 152T252 156Q267 157 277 150T296 125Q304 111 311 92T323 58Q328 40 324 34T305 25Q281 23 250 18T186 7T125 -6T76 -19Q47 -27 36 -23T16 -6Q5 6 -10 28T-36 68Q-40 75 -43 84T-48
102T-47 120T-36 138Q-1 175 36 222T109 318T173 416T223 504T252 571T253 605Q246 612 235 608T209 592T180 561T149 522Q126 498 95 497T36 509Q28 513 23 518T17 534T19 557T31 592Q60 656 102 699T192 754Q220 761 245 755T293 733T331 699T358 660Q372 631
376 604T379 550T368 496T347 439Q333 404 311 366T263 288T207 212T148 143Z" />
<glyph unicode="3" glyph-name="three" horiz-adv-x="433" d="M249 371Q309 407 344 450Q358 468 367 494T377 552T369 618T337 688Q316 719 295 735T254 758T216 762T183 756Q162 750 142 738T103 710T71 676T46 641Q30 613 51 588Q62 576 77 569T109 559T142
559T171 575Q188 589 207 602T241 616Q251 616 256 607Q263 595 256 576T224 532T159 480T57 426Q32 414 48 377Q67 334 95 312T152 296Q175 300 189 298T217 282Q223 275 226 262T229 232T223 196T205 158Q179 120 144 115T52 150Q33 164 8 167T-37 152Q-49 142
-49 126T-22 76Q23 18 69 -3T157 -24Q212 -24 256 -1T335 85Q349 112 356 143T361 207T345 271T307 332Q294 347 280 355T249 371Z" />
<glyph unicode="4" glyph-name="four" horiz-adv-x="474" d="M346 368Q373 366 385 335Q392 317 395 303T404 271Q408 252 404 245T383 236Q368 235 353 234T323 232Q312 166 303 108T287 1Q284 -18 278 -23T254 -22Q241 -17 225 -9T195 11Q181 25 177 38T175
78Q177 102 181 136T193 216Q164 211 136 207T82 196Q68 192 56 193T31 212Q16 229 2 250T-24 294Q-32 312 -32 328T-23 366Q-4 409 25 462T88 567T155 667T216 748Q230 763 240 765T267 761Q276 757 291 748T322 729T354 707T379 689Q395 675 398 664T397 631Q386
580 373 512T346 368ZM94 346Q121 351 153 354T217 361Q228 420 238 479T261 594Q239 567 217 536T174 473T132 408T94 346Z" />
<glyph unicode="5" glyph-name="five" horiz-adv-x="393" d="M198 581Q185 541 174 502T155 428Q211 428 262 389Q308 353 321 285T305 126Q299 106 287 83T254 39T205 5T138 -10Q96 -11 57 8T-10 79Q-35 116 -36 132Q-38 147 -25 157Q-5 174 23 173T68 154Q93
130 111 123T143 118T167 133T184 160Q194 179 199 202T204 245Q204 266 201 282T194 304Q190 308 181 310T159 312T135 309T114 302Q94 294 87 295T70 308Q59 319 50 327T27 349Q18 359 14 373T15 414Q35 524 85 688Q97 724 130 732Q178 742 222 746T310 752Q344
755 356 720Q364 701 367 681T374 643Q379 623 375 616T353 606Q318 601 279 595T198 581Z" />
<glyph unicode="6" glyph-name="six" horiz-adv-x="408" d="M178 454Q212 455 243 438Q292 411 309 376T329 294Q332 249 325 206T305 126T273 59T236 11Q224 0 209 -8T175 -18T132 -15T78 4Q20 36 -3 84T-25 205Q-25 252 -16 316T16 452T79 599T178 743Q192 758
200 762T229 762Q248 757 272 747T311 726Q325 714 328 702T318 673Q276 625 241 570T178 454ZM109 265Q95 205 95 165T111 113Q131 99 154 123T195 202Q210 248 211 284T193 331Q176 341 152 323T109 265Z" />
<glyph unicode="7" glyph-name="seven" horiz-adv-x="429" d="M248 610Q218 552 189 490T132 362T80 232T35 103Q28 79 29 65T41 34Q53 17 68 3T98 -22Q114 -32 121 -30T134 -10Q160 64 191 143T257 298T325 446T391 577Q403 599 402 617T390 654Q382 669 371
688T346 728Q335 748 323 754T293 760Q262 758 226 755T155 748T87 737T29 721Q18 717 15 710T20 686Q27 668 39 647T59 611Q72 594 86 590T115 589Q127 591 143 593T177 599T213 605T248 610Z" />
<glyph unicode="8" glyph-name="eight" horiz-adv-x="436" d="M377 485Q362 451 334 422T269 364Q309 328 327 293T349 222T342 151T312 79Q290 40 263 18T205 -13T142 -18T79 0Q21 25 -6 76T-27 188Q-21 250 14 298T94 385Q46 431 34 485T48 600Q70 651 105 689T186
750Q224 769 261 756T333 708Q376 663 391 605T377 485ZM244 635Q214 609 195 583T167 532T160 486T174 448Q244 508 263 552T244 635ZM186 296Q156 271 135 241T103 179T99 128T119 102Q135 94 157 109T196 163Q211 199 212 233T186 296Z" />
<glyph unicode="9" glyph-name="nine" horiz-adv-x="406" d="M130 250Q121 252 112 253T95 260Q47 282 24 316T-5 402Q-12 447 -8 494T9 585T41 665T84 725Q96 736 111 745T145 759T187 761T238 742Q266 726 288 708T326 668T351 617T362 552Q365 494 348 419T299
268T221 121T123 0Q109 -13 97 -18T68 -12Q52 -2 40 5T13 28Q3 39 0 51T10 78Q45 118 75 161T130 250ZM189 386Q205 432 214 472T226 544T225 597T210 624Q200 629 189 621T166 595T145 555T127 505Q121 481 118 458T116 416T122 383T139 364Q164 351 189 386Z"
/>
<glyph unicode=":" glyph-name="colon" horiz-adv-x="246" d="M17 385Q18 406 25 424T45 454T73 470T110 466Q137 455 149 432T161 385Q161 377 161 370T159 356Q157 347 152 335T138 311T117 292T90 284Q59 283 37 311T17 385ZM-29 84Q-25 123 -2 146T60 155Q79
148 90 133T106 101T111 66T110 35Q104 3 82 -14T31 -23Q2 -16 -16 11T-29 84Z" />
<glyph unicode=";" glyph-name="semicolon" horiz-adv-x="260" d="M-36 462Q-30 407 -5 374T52 341Q68 341 79 350T97 372T107 401T111 427Q112 442 110 461T100 499T79 534T45 559Q25 569 9 564T-17 545T-33 508T-36 462ZM61 -144Q67 -132 74 -113T89 -71T102
-25T113 20Q121 46 109 71T67 122Q54 135 42 145T21 158T5 157T-3 136Q-13 70 -26 8T-51 -112Q-60 -146 -31 -160Q-17 -168 -2 -173T27 -177Q38 -175 46 -168T61 -144Z" />
<glyph unicode="&lt;" glyph-name="less" horiz-adv-x="348" d="M258 450Q224 433 190 413T121 371Q150 354 175 338T219 308Q231 298 236 288T241 260Q238 225 232 202Q227 185 221 182T200 190Q155 222 105 251T3 308Q-6 314 -8 325Q-10 343 -7 353Q-5 367 -4
382T0 412T8 438T25 456Q37 465 52 475T83 496T117 516T150 534Q167 542 178 547T198 554T214 553T230 539Q251 513 266 488Q276 473 274 465T258 450Z" />
<glyph unicode="=" glyph-name="equal" horiz-adv-x="436" d="M75 398Q59 396 50 400T33 422Q26 436 20 453T9 486Q4 505 11 513T30 524Q60 529 96 532T169 535T241 535T307 529Q335 526 346 498Q352 481 356 467T364 439Q368 422 363 416T344 412Q274 414 208
412T75 398ZM68 192Q52 188 43 192T25 212Q17 226 10 243T-3 275Q-10 293 -4 303T15 316Q46 323 81 329T153 338T224 343T290 344Q317 344 329 316Q337 300 341 286T350 258Q355 241 351 235T332 228Q196 222 68 192Z" />
<glyph unicode="&gt;" glyph-name="greater" horiz-adv-x="370" d="M299 397Q293 358 284 329Q279 312 273 305T252 290Q201 270 161 251T83 208Q72 200 65 201T45 214Q34 225 22 241T-1 275Q-9 289 -5 298T8 313Q36 330 76 349T159 386Q135 400 112 412T65 436Q50
442 46 449T36 474Q34 489 34 511T35 550Q37 564 45 567T65 565Q86 556 112 543T167 513T225 480T281 444Q293 436 298 428T299 397Z" />
<glyph unicode="?" glyph-name="question" horiz-adv-x="453" d="M89 198Q75 209 72 222T70 260Q73 307 88 343T123 406T166 454T207 491Q252 529 267 562T281 619Q279 635 271 642T253 649Q239 649 226 641T200 620T172 592T143 560Q121 536 90 533T28 548Q13
556 10 573T27 629Q58 689 97 727T182 776Q209 783 234 779T280 764T319 735T347 698Q372 659 381 623T389 553T377 493T354 444Q334 412 307 391T253 344T205 283T178 190Q179 172 170 168T148 166T118 179T89 198ZM32 65Q33 84 40 100T60 126T90 138T128 132Q160
118 170 96T180 50V35Q180 27 179 23Q174 -5 153 -23T98 -35Q69 -30 49 -5T32 65Z" />
<glyph unicode="@" glyph-name="at" horiz-adv-x="595" d="M512 300Q499 237 480 200T440 146T395 127T350 136Q315 148 296 188Q260 146 204 169Q187 176 171 191T143 231T130 291T138 374Q148 422 166 461T207 526T255 562T305 562Q322 554 335 536T353 493Q376
476 380 462T380 424Q378 412 373 386T363 328T354 267T350 218Q350 202 355 197Q369 181 392 221T433 347Q439 381 441 427T437 518T408 601T346 660Q311 677 272 671T197 635T130 551T84 419T73 284T94 187T132 126T172 96Q185 91 196 89T217 87T236 86T256 82Q271
77 286 67T312 41Q318 31 317 23T308 11Q284 0 250 0T171 22Q133 38 96 73T33 164T-4 295T0 467Q16 558 55 618T145 709T253 741T364 716Q418 690 452 645T504 543T523 423T512 300ZM316 476Q313 496 302 502Q297 504 286 494T262 463T237 415T218 354Q204 289
208 261T225 229Q235 225 247 242T271 293T294 374T316 476Z" />
<glyph unicode="A" glyph-name="A" horiz-adv-x="479" d="M275 186Q277 147 280 113T286 50Q289 22 295 11T318 -7Q334 -15 349 -16T381 -18Q398 -18 403 -11T407 14Q403 98 400 190T394 372T391 540T391 677Q392 700 387 714T362 737Q336 747 307 757T231 770Q204
773 190 760T167 726Q142 666 112 585T53 417T-2 247T-47 97Q-53 68 -52 56T-44 34T-27 16T-7 2T12 -10Q27 -18 34 -15T48 5Q58 37 68 70T93 142Q130 156 178 166T275 186ZM152 316Q181 400 209 476T261 612Q261 546 263 476T267 334Q209 328 152 316Z" />
<glyph unicode="B" glyph-name="B" horiz-adv-x="463" d="M313 364Q338 346 354 314T376 246Q381 204 371 174T337 114Q320 91 297 71T248 34T196 3T145 -20Q132 -25 123 -27T106 -29T89 -24T71 -10Q51 3 37 17T3 55Q-4 67 -9 75T-18 93T-21 115T-20 145Q-16 203
-8 273T8 417T23 563T34 698Q68 722 115 741T211 766T301 765T368 726Q389 698 404 667T428 592Q436 544 420 502T378 428Q364 412 349 396T313 364ZM149 427Q188 445 218 469T270 519T300 566T307 601Q302 622 266 621T179 587Q171 552 164 512T149 427ZM123 278Q117
240 111 203T100 128Q134 141 162 158T209 195T237 234T244 269Q241 279 232 286T207 295T170 294T123 278Z" />
<glyph unicode="C" glyph-name="C" horiz-adv-x="428" d="M311 206Q336 196 337 176T329 126Q318 91 300 61T264 11Q245 -8 215 -19T154 -27Q123 -23 98 -12T52 10Q35 21 18 42T-9 91Q-24 132 -29 185T-31 297T-15 418T16 537T61 645T118 730Q143 758 168 766T215
772Q248 768 282 751T340 713Q364 688 372 663T383 606Q385 569 383 525T375 451Q371 437 366 429T340 426Q300 437 282 461T258 528Q257 536 257 544T256 560Q256 586 254 607T239 635Q227 640 211 616T178 553T146 467T122 378Q113 333 109 287T105 203T112 138T133
106Q160 92 212 174Q250 231 311 206Z" />
<glyph unicode="D" glyph-name="D" horiz-adv-x="489" d="M34 706Q57 723 87 737T150 758T219 763T288 744T350 696T401 611Q420 566 426 510T425 393T396 271T340 155T253 55T136 -18Q101 -38 65 -9Q46 5 33 18T2 52Q-4 61 -10 69T-19 89T-24 115T-22 155L34
706ZM103 138Q154 170 189 213T247 302T281 394T293 478Q294 504 291 524T283 558Q272 586 245 599T179 596Q157 487 139 373T103 138Z" />
<glyph unicode="E" glyph-name="E" horiz-adv-x="385" d="M45 710L-31 132Q-33 106 -28 87T-11 54Q2 36 12 25T33 2Q43 -8 56 -13T97 -9Q137 2 181 15T267 40Q284 45 287 52T287 80Q282 98 277 115T264 151Q257 168 247 174T219 178Q187 175 159 171T101 158Q106
184 111 211T121 268Q158 279 197 288T275 308Q292 313 296 320T295 348Q291 366 287 383T274 418Q267 435 257 440T230 445Q210 444 192 443T154 437Q164 482 172 523T188 601Q230 609 268 615T342 626Q359 629 363 636T365 665Q361 683 358 698T346 732Q336 768
303 766Q233 762 165 745T45 710Z" />
<glyph unicode="F" glyph-name="F" horiz-adv-x="380" d="M341 626Q306 620 267 614T186 600Q178 567 172 526T155 438Q173 441 191 443T228 446Q258 449 272 419Q280 401 284 384T293 349Q298 329 294 321T272 310Q237 302 200 292T127 271Q114 199 104 132T85
10Q84 -8 73 -12T47 -12T16 1T-14 18Q-30 30 -33 44T-35 84Q-33 111 -27 158T-13 263T4 385T20 511T31 627T34 721Q59 730 90 737T155 750T225 760T296 766Q313 767 322 761T342 733Q358 698 363 664Q366 643 362 636T341 626Z" />
<glyph unicode="G" glyph-name="G" horiz-adv-x="442" d="M379 448Q375 431 370 425T348 421Q305 429 285 456T260 526Q259 534 259 542T258 559Q258 568 258 576T256 593Q254 608 252 619T243 632Q231 637 215 618T181 565T148 483T119 384Q108 341 103 294T98
207T106 138T127 102Q139 96 151 105T176 133T200 179T222 238Q184 235 163 257T131 331Q126 354 141 360T180 371Q203 378 228 382T271 391Q292 395 305 390T330 368Q338 357 345 344T358 320Q369 299 370 283T366 242Q345 157 315 97T249 4Q201 -37 142 -23Q89
-13 43 19Q26 33 10 56T-14 108Q-29 151 -33 205T-33 320T-15 441T20 558T69 663T131 744Q152 765 178 769T225 769Q255 764 286 749T339 710Q359 689 368 664T382 606Q384 589 384 567T385 524T383 482T379 448Z" />
<glyph unicode="H" glyph-name="H" horiz-adv-x="452" d="M428 664Q416 602 402 522T374 354T346 176T321 5Q321 -9 316 -14T303 -18T282 -13T257 -3Q230 9 215 26T205 80Q207 115 212 160T224 260Q198 254 172 249T119 238Q108 172 101 113T86 6Q83 -11 77 -16T54
-15Q38 -8 21 -1T-9 17Q-24 28 -30 42T-31 83Q-19 149 -8 232T13 403T34 575T53 727Q58 752 67 756T93 752Q111 745 132 733T169 707Q186 693 189 682T189 649Q179 603 168 538T144 398Q170 402 195 405T244 410Q258 501 271 587T296 739Q301 764 310 767T338 764Q355
758 373 747T409 721Q425 707 428 696T428 664Z" />
<glyph unicode="I" glyph-name="I" horiz-adv-x="208" d="M160 707Q177 693 180 682T180 649Q172 612 163 562T145 456T126 338T107 218T91 105T77 6Q74 -11 68 -16T45 -15Q28 -8 12 -1T-18 17Q-33 28 -37 42T-40 83Q-38 117 -33 167T-21 277T-6 400T10 524T27
637T43 727Q48 749 57 754T84 752Q102 746 123 734T160 707Z" />
<glyph unicode="J" glyph-name="J" horiz-adv-x="418" d="M92 -13Q142 -31 174 -21T230 10Q259 38 282 96T323 239T356 429T381 661Q383 682 380 692T359 718Q342 732 320 742T281 760Q263 766 254 761T241 733Q236 683 229 617T213 480T194 342T171 221T146 135T120
104Q104 107 101 128T95 198Q93 272 21 314Q-1 328 -11 313T-26 266Q-31 223 -31 190T-21 124Q-10 79 15 42T92 -13Z" />
<glyph unicode="K" glyph-name="K" horiz-adv-x="443" d="M220 292Q233 262 249 229T280 166T309 109T334 65Q345 48 343 38T327 17Q319 10 307 5T284 -2Q267 -9 249 -5T213 28Q206 40 194 61T166 108T136 163T107 222Q98 160 91 106T76 6Q76 -9 71 -15T58 -20T37
-14T10 -2Q-19 10 -32 28T-42 83Q-40 117 -35 168T-22 280T-6 406T11 532T28 647T44 738Q49 760 58 765T85 763Q103 757 124 745T161 718Q178 703 182 693T181 661Q172 620 163 566T142 445Q168 484 197 527T254 612T304 690T342 752Q351 769 360 769Q371 769 383
755Q396 741 405 723T423 684Q429 667 428 650T417 608Q404 576 382 537T333 456T277 372T220 292Z" />
<glyph unicode="L" glyph-name="L" horiz-adv-x="355" d="M255 41Q213 29 169 17T85 -8Q70 -14 60 -14T43 -13T31 -7T21 2Q10 13 1 24T-23 54Q-34 68 -39 85T-42 127Q-39 164 -34 212T-21 315T-4 428T14 542T33 648T52 740Q58 762 67 766T94 764Q112 758 133 747T170
721T189 696T188 664Q177 615 165 554T141 427T117 293T95 161Q124 168 150 172T207 179Q224 181 234 176T252 152Q260 135 265 117T274 82Q279 61 277 54T255 41Z" />
<glyph unicode="M" glyph-name="M" horiz-adv-x="616" d="M137 457Q144 369 154 283T175 128Q178 111 181 100T188 82T197 71T209 62Q230 51 255 44Q273 39 277 45T289 72Q299 106 315 155T351 259T391 369T428 470Q419 418 411 361T397 251T386 153T379 79Q376
54 381 39T402 13Q414 3 430 -4T462 -16Q479 -22 485 -14T495 12Q499 47 505 97T520 204T538 324T556 446T574 557T590 649Q595 675 590 689T567 715Q541 731 514 742T462 762Q442 770 429 769T406 755T387 720T364 661Q351 629 337 592T309 516T282 441T259 373L251
443L244 515L237 583Q235 600 234 614T232 642Q228 673 222 691T187 724Q165 735 144 743T91 757Q71 761 61 754T45 721Q38 684 30 632T13 521T-5 400T-21 278T-33 167T-40 78Q-42 52 -37 38T-16 12Q-3 2 12 -5T43 -18Q59 -23 65 -18T74 6Q78 48 84 101T99 214T117
335T137 457Z" />
<glyph unicode="N" glyph-name="N" horiz-adv-x="468" d="M258 314Q269 429 285 535T317 727Q321 749 330 754T358 754T388 742T421 719Q438 705 441 691T440 655Q429 594 417 513T392 344T369 172T348 17Q345 -21 309 -9Q278 0 246 17Q217 34 205 77Q196 107
187 146T168 229T150 321T133 415Q125 359 117 302T101 191T87 91T76 8Q74 -9 68 -13T44 -11Q28 -5 12 1T-19 22Q-33 33 -37 47T-39 88Q-37 114 -32 159T-21 262T-6 383T11 509T29 627T46 725Q51 748 62 754T90 754Q111 746 131 737T174 714Q192 704 199 689T211
643Q214 620 219 583T230 501T244 408T258 314Z" />
<glyph unicode="O" glyph-name="O" horiz-adv-x="463" d="M340 704Q363 680 374 652T392 589Q401 527 400 452T387 300T350 153T289 31Q263 0 234 -10T166 -15Q141 -11 115 -3T66 23Q49 37 32 59T6 109Q-8 153 -13 206T-16 315T-3 428T25 539T67 640T124 724Q144
745 172 755T226 761Q259 754 289 740T340 704ZM247 625Q235 630 219 610T188 555T158 476T135 391Q126 349 122 302T118 215T126 145T148 109Q161 102 176 117T206 163T234 240T256 338Q264 380 268 428T272 518T265 590T247 625Z" />
<glyph unicode="P" glyph-name="P" horiz-adv-x="472" d="M127 210Q118 156 110 104T96 1Q92 -15 86 -20T63 -20Q46 -13 30 -7T1 10T-16 37T-17 79Q-10 102 -4 154T9 270T21 402T33 529T44 625T56 668Q90 692 133 716T219 752T300 761T365 724Q386 695 404 660T434
574T431 483T392 406Q372 376 343 347T278 293T205 246T127 210ZM156 382Q200 402 232 430T285 487T314 543T317 588Q315 598 304 603T276 608T237 601T194 581Q184 536 175 487T156 382Z" />
<glyph unicode="Q" glyph-name="Q" horiz-adv-x="462" d="M367 38Q378 21 378 11T364 -8Q353 -18 341 -24T317 -34Q287 -42 265 -14Q261 -9 259 -6T253 0Q234 -13 212 -15T166 -15Q140 -12 114 -3T66 23Q49 37 32 59T6 109Q-8 153 -13 206T-16 315T-3 428T25 539T67
640T124 724Q144 745 172 755T226 761Q259 754 289 740T340 704Q363 680 374 652T391 589Q399 538 400 475T394 347T371 218T330 102Q341 85 349 69T367 38ZM177 118Q172 125 169 132T161 146Q145 173 168 190Q179 198 193 204T226 215Q236 241 243 272T255 338Q261
369 265 404T270 473T271 538T265 590Q261 614 253 621T234 623T211 599T187 554Q162 500 146 435T121 302Q118 267 118 235T120 177T130 133T148 109Q162 101 177 118Z" />
<glyph unicode="R" glyph-name="R" horiz-adv-x="485" d="M124 228Q114 170 106 116T89 7Q86 -9 80 -14T58 -14Q41 -7 27 -3T1 11Q-11 22 -15 37T-17 79Q-14 107 -9 161T4 280T19 415T38 544T58 643T79 691Q115 713 154 733T232 763T304 765T365 724Q386 695 404
660T434 574Q445 519 432 482Q413 422 364 371T245 274Q260 250 278 222T315 166T354 113T390 67Q404 50 403 40T392 19Q381 5 373 3T352 -3Q338 -9 320 -7T279 17Q264 33 244 57T203 109T162 167T124 228ZM194 584Q184 542 175 493T153 386Q195 406 228 435T282
493T313 548T319 588Q311 611 276 611Q259 611 238 605T194 584Z" />
<glyph unicode="S" glyph-name="S" horiz-adv-x="401" d="M-48 195Q-25 209 2 207T49 186Q102 137 143 123T202 129Q213 140 199 159T160 202T103 255T49 311Q15 350 0 408T3 534Q9 563 22 594T54 654T93 709T135 752Q149 766 177 774T240 769Q266 757 293 739T338
699Q363 670 367 641T373 587Q372 565 369 538T362 484T351 430T339 385Q333 367 325 363T302 366Q216 408 222 480Q223 502 228 532T237 586T236 622T216 617Q201 606 183 579T152 519T139 451T159 388Q186 352 222 321T288 259T333 194T335 118Q329 97 318 74T287
30T240 -5T171 -20Q118 -22 68 8T-34 113Q-61 150 -61 167Q-61 184 -48 195Z" />
<glyph unicode="T" glyph-name="T" horiz-adv-x="443" d="M405 634Q423 636 426 642T425 668Q420 688 412 709T391 748Q385 758 377 762T351 767Q317 765 274 761T185 751T97 737T19 720Q8 716 4 710T6 686Q12 669 21 643T43 600Q54 583 63 580T88 581Q99 585
115 588T149 595Q139 538 129 468T109 328T93 193T83 82Q77 44 93 26T137 -4Q151 -10 162 -15T182 -21T196 -17T202 2Q211 73 222 152T247 311T273 470T298 620Q327 624 354 627T405 634Z" />
<glyph unicode="U" glyph-name="U" horiz-adv-x="451" d="M0 102Q-19 153 -19 227T-10 385T17 557T53 722Q58 744 67 748T95 745Q112 738 128 727T159 702Q191 670 180 622Q170 579 159 526T137 419T120 311T111 216T114 145T133 110Q151 103 167 132T198 214T226
334T250 474T269 613T284 730Q285 752 296 757T325 756T361 738T396 713Q413 699 416 688T416 656Q402 534 387 429T353 241T309 98T252 11Q229 -6 206 -12T152 -16Q92 -10 54 22Q38 36 24 55T0 102Z" />
<glyph unicode="V" glyph-name="V" horiz-adv-x="466" d="M440 647Q450 682 437 702T400 740Q389 749 378 756T358 764T341 761T329 742Q294 617 256 479T176 209Q170 276 165 341T156 467T148 578T141 670Q136 721 99 739Q83 747 69 750T38 754Q21 754 17 746T13
716Q19 550 30 399T60 119Q64 96 76 68T112 22Q134 6 154 -4T197 -24T232 -28T255 4Q269 45 286 98T321 211T358 333T392 453T420 561T440 647Z" />
<glyph unicode="W" glyph-name="W" horiz-adv-x="641" d="M118 254Q120 308 123 366T129 478T136 573T140 636Q142 658 139 682T118 721Q103 733 86 739T48 752Q30 757 23 750T14 719Q11 674 9 619T5 505T2 386T1 267Q1 210 2 159T6 67Q7 39 13 26T35 4Q70 -13
110 -24Q125 -28 134 -25T152 0Q160 25 172 62T200 143T231 231T262 318Q262 286 264 251T268 183T273 120T278 70Q280 49 288 32T315 4Q334 -3 347 -9T384 -22Q406 -28 417 -23T435 2Q446 43 460 95T491 204T524 322T559 438T591 546T620 635Q626 655 625 675T610
713Q584 738 556 755Q537 765 529 763T512 736Q503 709 486 657T449 539T407 401T366 262Q368 315 370 369T374 471T377 553T379 602Q379 627 376 638T356 659Q340 667 329 673T300 684T275 684T259 662Q249 641 233 596T197 493T157 372T118 254Z" />
<glyph unicode="X" glyph-name="X" horiz-adv-x="472" d="M201 545Q237 610 267 664T321 754Q332 771 344 771Q356 771 370 760Q384 746 397 726T420 689Q431 668 429 650T417 614Q387 563 347 494T261 348Q289 257 314 174T361 25Q369 6 366 -3T348 -16Q315 -20
278 -16Q260 -13 250 -3T229 32Q221 49 206 95T169 206Q134 144 104 87T51 -12Q34 -42 8 -17Q-5 -5 -17 12T-41 46T-52 77Q-52 91 -42 113Q-17 167 22 243T108 400Q94 444 81 487T55 570T33 644T16 703Q10 728 14 737T35 749Q43 750 52 750Q61 750 69 750Q77 750
86 750T106 748Q126 745 137 731T156 695Q165 663 176 625T201 545Z" />
<glyph unicode="Y" glyph-name="Y" horiz-adv-x="434" d="M404 644Q395 613 376 566T333 462T280 345T225 227Q214 164 206 108T191 -3Q187 -23 181 -27T158 -26Q142 -19 125 -11T93 7Q79 21 75 34T72 74Q77 116 82 170T96 288Q84 342 71 399T45 514T21 624T0
722Q-5 743 -2 750T17 761Q34 763 51 764T85 760T110 743T126 706Q139 658 153 595T184 460Q216 532 247 605T307 751Q312 770 323 771T348 763T375 740T399 714Q410 697 411 683T404 644Z" />
<glyph unicode="Z" glyph-name="Z" horiz-adv-x="375" d="M198 601Q172 595 150 591T107 581Q91 577 78 582T53 605Q47 619 37 643T21 685Q16 703 19 709T34 721Q60 729 93 736T162 748T233 756T301 762Q318 763 326 756T342 732Q350 711 354 695T362 665Q367
647 367 631T355 595Q295 489 231 372T105 140Q129 148 153 153T203 164Q238 170 252 138Q260 119 266 102T275 67Q280 47 275 39T253 28Q211 16 164 4T76 -23Q49 -33 36 -28T12 -11Q1 1 -9 13T-33 43Q-42 57 -49 75T-47 116Q-31 155 -4 213T57 338T126 472T198
601Z" />
<glyph unicode="[" glyph-name="bracketleft" horiz-adv-x="304" d="M209 35Q214 16 210 8T188 0Q168 -5 143 -11T95 -23Q76 -28 63 -24T39 -8Q29 1 21 12T2 34Q-7 49 -11 66T-13 112Q-7 174 3 253T25 414T52 575T79 716Q85 747 114 752Q141 757 169 759T222 762Q238
763 247 754T264 728Q272 710 276 695T285 662Q290 643 285 636T264 626Q247 624 227 621T187 616Q176 563 164 501T141 374T120 245T102 124Q113 125 123 126T145 128Q175 133 189 101Q197 84 200 68T209 35Z" />
<glyph unicode="\" glyph-name="backslash" horiz-adv-x="358" d="M106 768Q125 763 131 754T143 721Q149 682 159 626T181 505T208 370T236 234T262 108T285 5Q290 -12 286 -20T265 -30Q237 -35 210 -29Q194 -27 186 -15T170 22Q160 56 146 110T117 231T85 368T55
507T30 633T12 731Q4 772 39 774Q56 775 72 774T106 768Z" />
<glyph unicode="]" glyph-name="bracketright" horiz-adv-x="318" d="M261 631Q248 572 234 494T207 335T181 174T160 34Q158 20 152 11T123 0Q100 -5 78 -9T34 -18Q16 -22 7 -17T-10 1Q-17 13 -23 28T-37 61Q-52 93 -23 104Q-8 109 12 115T52 125Q59 179 69 243T90
372T112 501T133 618Q125 617 117 616T101 613Q83 611 74 616T58 640Q51 656 45 673T36 705T38 730T57 744Q80 750 109 754T172 761Q189 763 198 758T218 739Q226 728 234 717T250 691Q261 674 262 662T261 631Z" />
<glyph unicode="^" glyph-name="asciicircum" horiz-adv-x="447" d="M328 353Q316 354 303 355T275 362Q251 370 240 402Q231 434 221 482T200 584Q168 538 140 493T89 410Q82 397 73 397Q66 397 56 410Q46 422 38 434T21 463Q6 491 20 517Q32 541 50 573T89 640T135
710T182 774Q194 791 203 791T224 784Q236 773 247 763T269 742Q279 728 283 718T291 683Q296 645 303 604T318 523T333 447T347 382Q351 365 347 359T328 353Z" />
<glyph unicode="_" glyph-name="underscore" horiz-adv-x="430" d="M2 -220Q-12 -220 -18 -213T-20 -187Q-18 -173 -16 -159T-10 -130Q-6 -112 1 -105T24 -98H470Q483 -97 489 -101T496 -115T495 -135T490 -158T486 -180T480 -201T468 -216T449 -220H2Z" />
<glyph unicode="a" glyph-name="a" horiz-adv-x="479" d="M275 186Q277 147 280 113T286 50Q289 22 295 11T318 -7Q334 -15 349 -16T381 -18Q398 -18 403 -11T407 14Q403 98 400 190T394 372T391 540T391 677Q392 700 387 714T362 737Q336 747 307 757T231 770Q204
773 190 760T167 726Q142 666 112 585T53 417T-2 247T-47 97Q-53 68 -52 56T-44 34T-27 16T-7 2T12 -10Q27 -18 34 -15T48 5Q58 37 68 70T93 142Q130 156 178 166T275 186ZM152 316Q181 400 209 476T261 612Q261 546 263 476T267 334Q209 328 152 316Z" />
<glyph unicode="b" glyph-name="b" horiz-adv-x="463" d="M313 364Q338 346 354 314T376 246Q381 204 371 174T337 114Q320 91 297 71T248 34T196 3T145 -20Q132 -25 123 -27T106 -29T89 -24T71 -10Q51 3 37 17T3 55Q-4 67 -9 75T-18 93T-21 115T-20 145Q-16 203
-8 273T8 417T23 563T34 698Q68 722 115 741T211 766T301 765T368 726Q389 698 404 667T428 592Q436 544 420 502T378 428Q364 412 349 396T313 364ZM149 427Q188 445 218 469T270 519T300 566T307 601Q302 622 266 621T179 587Q171 552 164 512T149 427ZM123 278Q117
240 111 203T100 128Q134 141 162 158T209 195T237 234T244 269Q241 279 232 286T207 295T170 294T123 278Z" />
<glyph unicode="c" glyph-name="c" horiz-adv-x="428" d="M311 206Q336 196 337 176T329 126Q318 91 300 61T264 11Q245 -8 215 -19T154 -27Q123 -23 98 -12T52 10Q35 21 18 42T-9 91Q-24 132 -29 185T-31 297T-15 418T16 537T61 645T118 730Q143 758 168 766T215
772Q248 768 282 751T340 713Q364 688 372 663T383 606Q385 569 383 525T375 451Q371 437 366 429T340 426Q300 437 282 461T258 528Q257 536 257 544T256 560Q256 586 254 607T239 635Q227 640 211 616T178 553T146 467T122 378Q113 333 109 287T105 203T112 138T133
106Q160 92 212 174Q250 231 311 206Z" />
<glyph unicode="d" glyph-name="d" horiz-adv-x="489" d="M34 706Q57 723 87 737T150 758T219 763T288 744T350 696T401 611Q420 566 426 510T425 393T396 271T340 155T253 55T136 -18Q101 -38 65 -9Q46 5 33 18T2 52Q-4 61 -10 69T-19 89T-24 115T-22 155L34
706ZM103 138Q154 170 189 213T247 302T281 394T293 478Q294 504 291 524T283 558Q272 586 245 599T179 596Q157 487 139 373T103 138Z" />
<glyph unicode="e" glyph-name="e" horiz-adv-x="385" d="M45 710L-31 132Q-33 106 -28 87T-11 54Q2 36 12 25T33 2Q43 -8 56 -13T97 -9Q137 2 181 15T267 40Q284 45 287 52T287 80Q282 98 277 115T264 151Q257 168 247 174T219 178Q187 175 159 171T101 158Q106
184 111 211T121 268Q158 279 197 288T275 308Q292 313 296 320T295 348Q291 366 287 383T274 418Q267 435 257 440T230 445Q210 444 192 443T154 437Q164 482 172 523T188 601Q230 609 268 615T342 626Q359 629 363 636T365 665Q361 683 358 698T346 732Q336 768
303 766Q233 762 165 745T45 710Z" />
<glyph unicode="f" glyph-name="f" horiz-adv-x="380" d="M341 626Q306 620 267 614T186 600Q178 567 172 526T155 438Q173 441 191 443T228 446Q258 449 272 419Q280 401 284 384T293 349Q298 329 294 321T272 310Q237 302 200 292T127 271Q114 199 104 132T85
10Q84 -8 73 -12T47 -12T16 1T-14 18Q-30 30 -33 44T-35 84Q-33 111 -27 158T-13 263T4 385T20 511T31 627T34 721Q59 730 90 737T155 750T225 760T296 766Q313 767 322 761T342 733Q358 698 363 664Q366 643 362 636T341 626Z" />
<glyph unicode="g" glyph-name="g" horiz-adv-x="442" d="M379 448Q375 431 370 425T348 421Q305 429 285 456T260 526Q259 534 259 542T258 559Q258 568 258 576T256 593Q254 608 252 619T243 632Q231 637 215 618T181 565T148 483T119 384Q108 341 103 294T98
207T106 138T127 102Q139 96 151 105T176 133T200 179T222 238Q184 235 163 257T131 331Q126 354 141 360T180 371Q203 378 228 382T271 391Q292 395 305 390T330 368Q338 357 345 344T358 320Q369 299 370 283T366 242Q345 157 315 97T249 4Q201 -37 142 -23Q89
-13 43 19Q26 33 10 56T-14 108Q-29 151 -33 205T-33 320T-15 441T20 558T69 663T131 744Q152 765 178 769T225 769Q255 764 286 749T339 710Q359 689 368 664T382 606Q384 589 384 567T385 524T383 482T379 448Z" />
<glyph unicode="h" glyph-name="h" horiz-adv-x="452" d="M428 664Q416 602 402 522T374 354T346 176T321 5Q321 -9 316 -14T303 -18T282 -13T257 -3Q230 9 215 26T205 80Q207 115 212 160T224 260Q198 254 172 249T119 238Q108 172 101 113T86 6Q83 -11 77 -16T54
-15Q38 -8 21 -1T-9 17Q-24 28 -30 42T-31 83Q-19 149 -8 232T13 403T34 575T53 727Q58 752 67 756T93 752Q111 745 132 733T169 707Q186 693 189 682T189 649Q179 603 168 538T144 398Q170 402 195 405T244 410Q258 501 271 587T296 739Q301 764 310 767T338 764Q355
758 373 747T409 721Q425 707 428 696T428 664Z" />
<glyph unicode="i" glyph-name="i" horiz-adv-x="208" d="M160 707Q177 693 180 682T180 649Q172 612 163 562T145 456T126 338T107 218T91 105T77 6Q74 -11 68 -16T45 -15Q28 -8 12 -1T-18 17Q-33 28 -37 42T-40 83Q-38 117 -33 167T-21 277T-6 400T10 524T27
637T43 727Q48 749 57 754T84 752Q102 746 123 734T160 707Z" />
<glyph unicode="j" glyph-name="j" horiz-adv-x="418" d="M92 -13Q142 -31 174 -21T230 10Q259 38 282 96T323 239T356 429T381 661Q383 682 380 692T359 718Q342 732 320 742T281 760Q263 766 254 761T241 733Q236 683 229 617T213 480T194 342T171 221T146 135T120
104Q104 107 101 128T95 198Q93 272 21 314Q-1 328 -11 313T-26 266Q-31 223 -31 190T-21 124Q-10 79 15 42T92 -13Z" />
<glyph unicode="k" glyph-name="k" horiz-adv-x="443" d="M220 292Q233 262 249 229T280 166T309 109T334 65Q345 48 343 38T327 17Q319 10 307 5T284 -2Q267 -9 249 -5T213 28Q206 40 194 61T166 108T136 163T107 222Q98 160 91 106T76 6Q76 -9 71 -15T58 -20T37
-14T10 -2Q-19 10 -32 28T-42 83Q-40 117 -35 168T-22 280T-6 406T11 532T28 647T44 738Q49 760 58 765T85 763Q103 757 124 745T161 718Q178 703 182 693T181 661Q172 620 163 566T142 445Q168 484 197 527T254 612T304 690T342 752Q351 769 360 769Q371 769 383
755Q396 741 405 723T423 684Q429 667 428 650T417 608Q404 576 382 537T333 456T277 372T220 292Z" />
<glyph unicode="l" glyph-name="l" horiz-adv-x="355" d="M255 41Q213 29 169 17T85 -8Q70 -14 60 -14T43 -13T31 -7T21 2Q10 13 1 24T-23 54Q-34 68 -39 85T-42 127Q-39 164 -34 212T-21 315T-4 428T14 542T33 648T52 740Q58 762 67 766T94 764Q112 758 133 747T170
721T189 696T188 664Q177 615 165 554T141 427T117 293T95 161Q124 168 150 172T207 179Q224 181 234 176T252 152Q260 135 265 117T274 82Q279 61 277 54T255 41Z" />
<glyph unicode="m" glyph-name="m" horiz-adv-x="616" d="M137 457Q144 369 154 283T175 128Q178 111 181 100T188 82T197 71T209 62Q230 51 255 44Q273 39 277 45T289 72Q299 106 315 155T351 259T391 369T428 470Q419 418 411 361T397 251T386 153T379 79Q376
54 381 39T402 13Q414 3 430 -4T462 -16Q479 -22 485 -14T495 12Q499 47 505 97T520 204T538 324T556 446T574 557T590 649Q595 675 590 689T567 715Q541 731 514 742T462 762Q442 770 429 769T406 755T387 720T364 661Q351 629 337 592T309 516T282 441T259 373L251
443L244 515L237 583Q235 600 234 614T232 642Q228 673 222 691T187 724Q165 735 144 743T91 757Q71 761 61 754T45 721Q38 684 30 632T13 521T-5 400T-21 278T-33 167T-40 78Q-42 52 -37 38T-16 12Q-3 2 12 -5T43 -18Q59 -23 65 -18T74 6Q78 48 84 101T99 214T117
335T137 457Z" />
<glyph unicode="n" glyph-name="n" horiz-adv-x="468" d="M258 314Q269 429 285 535T317 727Q321 749 330 754T358 754T388 742T421 719Q438 705 441 691T440 655Q429 594 417 513T392 344T369 172T348 17Q345 -21 309 -9Q278 0 246 17Q217 34 205 77Q196 107
187 146T168 229T150 321T133 415Q125 359 117 302T101 191T87 91T76 8Q74 -9 68 -13T44 -11Q28 -5 12 1T-19 22Q-33 33 -37 47T-39 88Q-37 114 -32 159T-21 262T-6 383T11 509T29 627T46 725Q51 748 62 754T90 754Q111 746 131 737T174 714Q192 704 199 689T211
643Q214 620 219 583T230 501T244 408T258 314Z" />
<glyph unicode="o" glyph-name="o" horiz-adv-x="463" d="M340 704Q363 680 374 652T392 589Q401 527 400 452T387 300T350 153T289 31Q263 0 234 -10T166 -15Q141 -11 115 -3T66 23Q49 37 32 59T6 109Q-8 153 -13 206T-16 315T-3 428T25 539T67 640T124 724Q144
745 172 755T226 761Q259 754 289 740T340 704ZM247 625Q235 630 219 610T188 555T158 476T135 391Q126 349 122 302T118 215T126 145T148 109Q161 102 176 117T206 163T234 240T256 338Q264 380 268 428T272 518T265 590T247 625Z" />
<glyph unicode="p" glyph-name="p" horiz-adv-x="472" d="M127 210Q118 156 110 104T96 1Q92 -15 86 -20T63 -20Q46 -13 30 -7T1 10T-16 37T-17 79Q-10 102 -4 154T9 270T21 402T33 529T44 625T56 668Q90 692 133 716T219 752T300 761T365 724Q386 695 404 660T434
574T431 483T392 406Q372 376 343 347T278 293T205 246T127 210ZM156 382Q200 402 232 430T285 487T314 543T317 588Q315 598 304 603T276 608T237 601T194 581Q184 536 175 487T156 382Z" />
<glyph unicode="q" glyph-name="q" horiz-adv-x="462" d="M367 38Q378 21 378 11T364 -8Q353 -18 341 -24T317 -34Q287 -42 265 -14Q261 -9 259 -6T253 0Q234 -13 212 -15T166 -15Q140 -12 114 -3T66 23Q49 37 32 59T6 109Q-8 153 -13 206T-16 315T-3 428T25 539T67
640T124 724Q144 745 172 755T226 761Q259 754 289 740T340 704Q363 680 374 652T391 589Q399 538 400 475T394 347T371 218T330 102Q341 85 349 69T367 38ZM177 118Q172 125 169 132T161 146Q145 173 168 190Q179 198 193 204T226 215Q236 241 243 272T255 338Q261
369 265 404T270 473T271 538T265 590Q261 614 253 621T234 623T211 599T187 554Q162 500 146 435T121 302Q118 267 118 235T120 177T130 133T148 109Q162 101 177 118Z" />
<glyph unicode="r" glyph-name="r" horiz-adv-x="485" d="M124 228Q114 170 106 116T89 7Q86 -9 80 -14T58 -14Q41 -7 27 -3T1 11Q-11 22 -15 37T-17 79Q-14 107 -9 161T4 280T19 415T38 544T58 643T79 691Q115 713 154 733T232 763T304 765T365 724Q386 695 404
660T434 574Q445 519 432 482Q413 422 364 371T245 274Q260 250 278 222T315 166T354 113T390 67Q404 50 403 40T392 19Q381 5 373 3T352 -3Q338 -9 320 -7T279 17Q264 33 244 57T203 109T162 167T124 228ZM194 584Q184 542 175 493T153 386Q195 406 228 435T282
493T313 548T319 588Q311 611 276 611Q259 611 238 605T194 584Z" />
<glyph unicode="s" glyph-name="s" horiz-adv-x="401" d="M-48 198Q-25 213 2 211T49 190Q103 139 144 125T203 132Q214 143 201 162T161 207T104 260T49 317Q15 357 0 415T3 543Q9 573 22 604T54 666T93 722T136 765Q143 772 154 778T179 788T209 790T242 782Q268
770 295 752T341 711Q366 682 370 652T376 597Q375 575 372 548T364 492T354 437T342 391Q335 374 328 369T304 373Q218 415 224 488Q225 503 228 522T234 560T239 597T240 624T234 637T218 628Q203 617 184 590T153 528T140 459T160 395Q188 358 224 327T290 264T335
198T337 120Q331 99 320 75T289 30T242 -5T173 -20Q119 -22 69 9T-33 115Q-61 152 -61 170Q-61 188 -48 198Z" />
<glyph unicode="t" glyph-name="t" horiz-adv-x="443" d="M405 634Q423 636 426 642T425 668Q420 688 412 709T391 748Q385 758 377 762T351 767Q317 765 274 761T185 751T97 737T19 720Q8 716 4 710T6 686Q12 669 21 643T43 600Q54 583 63 580T88 581Q99 585
115 588T149 595Q139 538 129 468T109 328T93 193T83 82Q77 44 93 26T137 -4Q151 -10 162 -15T182 -21T196 -17T202 2Q211 73 222 152T247 311T273 470T298 620Q327 624 354 627T405 634Z" />
<glyph unicode="u" glyph-name="u" horiz-adv-x="451" d="M0 102Q-19 153 -19 227T-10 385T17 557T53 722Q58 744 67 748T95 745Q112 738 128 727T159 702Q191 670 180 622Q170 579 159 526T137 419T120 311T111 216T114 145T133 110Q151 103 167 132T198 214T226
334T250 474T269 613T284 730Q285 752 296 757T325 756T361 738T396 713Q413 699 416 688T416 656Q402 534 387 429T353 241T309 98T252 11Q229 -6 206 -12T152 -16Q92 -10 54 22Q38 36 24 55T0 102Z" />
<glyph unicode="v" glyph-name="v" horiz-adv-x="466" d="M440 647Q450 682 437 702T400 740Q389 749 378 756T358 764T341 761T329 742Q294 617 256 479T176 209Q170 276 165 341T156 467T148 578T141 670Q136 721 99 739Q83 747 69 750T38 754Q21 754 17 746T13
716Q19 550 30 399T60 119Q64 96 76 68T112 22Q134 6 154 -4T197 -24T232 -28T255 4Q269 45 286 98T321 211T358 333T392 453T420 561T440 647Z" />
<glyph unicode="w" glyph-name="w" horiz-adv-x="641" d="M118 254Q120 308 123 366T129 478T136 573T140 636Q142 658 139 682T118 721Q103 733 86 739T48 752Q30 757 23 750T14 719Q11 674 9 619T5 505T2 386T1 267Q1 210 2 159T6 67Q7 39 13 26T35 4Q70 -13
110 -24Q125 -28 134 -25T152 0Q160 25 172 62T200 143T231 231T262 318Q262 286 264 251T268 183T273 120T278 70Q280 49 288 32T315 4Q334 -3 347 -9T384 -22Q406 -28 417 -23T435 2Q446 43 460 95T491 204T524 322T559 438T591 546T620 635Q626 655 625 675T610
713Q584 738 556 755Q537 765 529 763T512 736Q503 709 486 657T449 539T407 401T366 262Q368 315 370 369T374 471T377 553T379 602Q379 627 376 638T356 659Q340 667 329 673T300 684T275 684T259 662Q249 641 233 596T197 493T157 372T118 254Z" />
<glyph unicode="x" glyph-name="x" horiz-adv-x="472" d="M201 545Q237 610 267 664T321 754Q332 771 344 771Q356 771 370 760Q384 746 397 726T420 689Q431 668 429 650T417 614Q387 563 347 494T261 348Q289 257 314 174T361 25Q369 6 366 -3T348 -16Q315 -20
278 -16Q260 -13 250 -3T229 32Q221 49 206 95T169 206Q134 144 104 87T51 -12Q34 -42 8 -17Q-5 -5 -17 12T-41 46T-52 77Q-52 91 -42 113Q-17 167 22 243T108 400Q94 444 81 487T55 570T33 644T16 703Q10 728 14 737T35 749Q43 750 52 750Q61 750 69 750Q77 750
86 750T106 748Q126 745 137 731T156 695Q165 663 176 625T201 545Z" />
<glyph unicode="y" glyph-name="y" horiz-adv-x="434" d="M404 644Q395 613 376 566T333 462T280 345T225 227Q214 164 206 108T191 -3Q187 -23 181 -27T158 -26Q142 -19 125 -11T93 7Q79 21 75 34T72 74Q77 116 82 170T96 288Q84 342 71 399T45 514T21 624T0
722Q-5 743 -2 750T17 761Q34 763 51 764T85 760T110 743T126 706Q139 658 153 595T184 460Q216 532 247 605T307 751Q312 770 323 771T348 763T375 740T399 714Q410 697 411 683T404 644Z" />
<glyph unicode="z" glyph-name="z" horiz-adv-x="375" d="M198 601Q172 595 150 591T107 581Q91 577 78 582T53 605Q47 619 37 643T21 685Q16 703 19 709T34 721Q60 729 93 736T162 748T233 756T301 762Q318 763 326 756T342 732Q350 711 354 695T362 665Q367
647 367 631T355 595Q295 489 231 372T105 140Q129 148 153 153T203 164Q238 170 252 138Q260 119 266 102T275 67Q280 47 275 39T253 28Q211 16 164 4T76 -23Q49 -33 36 -28T12 -11Q1 1 -9 13T-33 43Q-42 57 -49 75T-47 116Q-31 155 -4 213T57 338T126 472T198
601Z" />
<glyph unicode="{" glyph-name="braceleft" horiz-adv-x="339" d="M245 35Q250 16 246 8T224 0Q203 -5 179 -11T131 -23Q110 -30 98 -25T74 -8Q65 1 56 12T37 34Q24 49 20 66T19 112Q24 150 29 193T42 287Q34 288 29 293T16 310Q6 327 -1 350T-14 391Q-22 423
0 430Q12 435 29 438T66 445Q79 521 91 590T114 716Q118 732 125 741T150 752Q176 757 204 759T257 762Q287 763 300 728Q308 710 312 695T320 662Q325 643 321 636T299 626Q282 624 263 621T222 616Q211 563 200 501T177 374T156 245T138 124Q149 125 159 126T181
128Q210 133 224 101Q232 84 236 68T245 35Z" />
<glyph unicode="|" glyph-name="bar" horiz-adv-x="358" d="M233 774Q250 760 253 749T252 716Q245 678 235 619T213 490T189 343T165 194T145 60T131 -44Q127 -63 122 -68T99 -68Q83 -61 71 -54T46 -39Q31 -28 27 -14T25 24Q28 58 35 118T51 250T71 401T92 553T112
688T129 788Q134 810 143 815T170 812Q186 804 201 796T233 774Z" />
<glyph unicode="}" glyph-name="braceright" horiz-adv-x="377" d="M261 631Q253 589 244 540T223 436Q252 436 265 402Q272 385 276 366T286 329Q293 309 287 301T266 290T233 286T197 278Q186 209 177 147T160 34Q158 20 151 11T122 0Q99 -5 77 -9T33 -18Q16
-22 7 -17T-10 1Q-14 8 -20 20T-31 45T-39 70T-41 88Q-37 102 -8 110T52 125Q59 179 69 243T90 372T112 501T133 618Q125 617 117 616T101 613Q83 611 74 616T57 640Q49 657 44 673T34 706T37 732T57 744Q80 750 109 754T172 761Q189 763 198 758T218 739Q226 728
234 717T250 691Q261 674 262 662T261 631Z" />
</font>
</defs>
</svg>
